# xmcd
#
# Track frame offsets:
#	150
#	11820
#	26623
#	40961
#	56971
#	73053
#	87895
#	101410
#	113793
#	126287
#	142891
#	157829
#	169073
#	185189
#	197991
#	210923
#	223600
#	236465
#	248602
#	262429
#	278743
#	290919
#
# Disc length: 4069 seconds
#
# Revision: 0
# Processed by: cddbd v1.5.2PL0 Copyright (c) Steve Scherf et al.
# Submitted via: dBpowerAMP V4.0
#
DISCID=500fe316
DTITLE=Pesado - Piensame Un Momento
DYEAR=1900
DGENRE=Latin
TTITLE0=Te Necesito
TTITLE1=Como Quires Que Te Olvide
TTITLE2=Humillate
TTITLE3=Promesas
TTITLE4=Mi Complemento
TTITLE5=Dolor
TTITLE6=Daria
TTITLE7=Ya Lo Sabia
TTITLE8=Demasiado Tarde
TTITLE9=No Te Extranare
TTITLE10=Por La Sombrita
TTITLE11=Perdon Lo Que Dica
TTITLE12=Te Quiero, Te Amo
TTITLE13=Te Quiero Te Amo
TTITLE14=Ayudame A Olvidar
TTITLE15=Cruz De Marihuana
TTITLE16=Quiero Que Me Quieras
TTITLE17=Necesito De T119
TTITLE18=Dejame Amarte
TTITLE19=Te Voy A Esperar
TTITLE20=Mi Pequeno Amor
TTITLE21=Enamorate De Mi
EXTD=
EXTT0=
EXTT1=
EXTT2=
EXTT3=
EXTT4=
EXTT5=
EXTT6=
EXTT7=
EXTT8=
EXTT9=
EXTT10=
EXTT11=
EXTT12=
EXTT13=
EXTT14=
EXTT15=
EXTT16=
EXTT17=
EXTT18=
EXTT19=
EXTT20=
EXTT21=
PLAYORDER=
